
<!-- Uploaded to: SVG Repo, www.svgrepo.com, Generator: SVG Repo Mixer Tools -->
<svg height="800px" width="800px" version="1.1" id="Layer_1" xmlns="http://www.w3.org/2000/svg" xmlns:xlink="http://www.w3.org/1999/xlink" 
	 viewBox="0 0 512 512" xml:space="preserve">
<path style="fill:#FFAD61;" d="M492.033,272.411L272.437,52.814c-4.973-4.973-11.389-8.248-18.335-9.359L48.883,10.635
	c-22.438-3.589-41.827,15.8-38.238,38.238l32.821,205.219c1.111,6.945,4.387,13.362,9.36,18.335l219.597,219.597
	c13.038,13.038,34.175,13.038,47.214,0l172.398-172.398C505.071,306.587,505.071,285.45,492.033,272.411z M85.689,112.195
	c-14.645,0-26.518-11.873-26.518-26.518S71.044,59.16,85.689,59.16s26.518,11.873,26.518,26.518S100.334,112.195,85.689,112.195z"/>
<g>
	<path style="fill:#4D3D36;" d="M296.029,512c-11.642,0-22.587-4.532-30.82-12.765L45.614,279.639
		c-6.535-6.536-10.759-14.812-12.218-23.936L0.574,50.485c-2.233-13.962,2.22-27.704,12.219-37.702
		c9.998-9.997,23.74-14.45,37.701-12.219l205.219,32.821c9.127,1.461,17.404,5.685,23.936,12.218l219.597,219.597l0,0
		c16.993,16.994,16.992,44.643,0,61.637L326.848,499.235C318.615,507.467,307.67,512,296.029,512z M43.517,20.405
		c-6.092,0-11.882,2.383-16.3,6.8c-5.319,5.32-7.688,12.63-6.5,20.058l32.821,205.219c0.776,4.854,3.024,9.257,6.501,12.734
		L279.634,484.81c9.038,9.039,23.749,9.044,32.789,0l172.398-172.398c9.039-9.039,9.039-23.749,0-32.789v0.001L265.225,60.027
		c-3.475-3.476-7.879-5.723-12.735-6.501L47.273,20.706C46.015,20.505,44.759,20.405,43.517,20.405z M85.689,122.394
		c-20.246,0-36.717-16.471-36.717-36.717s16.471-36.717,36.717-36.717s36.717,16.471,36.717,36.717S105.934,122.394,85.689,122.394z
		 M85.689,69.359c-8.998,0-16.319,7.321-16.319,16.319s7.321,16.319,16.319,16.319s16.319-7.321,16.319-16.319
		S94.687,69.359,85.689,69.359z"/>
	<path style="fill:#4D3D36;" d="M195.839,326.376c-2.61,0-5.221-0.996-7.212-2.987c-3.983-3.983-3.983-10.441,0-14.425
		l120.349-120.349c3.984-3.982,10.44-3.982,14.425,0c3.983,3.983,3.983,10.441,0,14.425L203.052,323.389
		C201.059,325.381,198.449,326.376,195.839,326.376z"/>
	<path style="fill:#4D3D36;" d="M353.925,249.883c-2.611,0-5.22-0.996-7.212-2.987c-3.983-3.983-3.983-10.441,0-14.425l3.06-3.06
		c3.984-3.982,10.44-3.982,14.425,0c3.983,3.983,3.983,10.441,0,14.425l-3.06,3.06C359.145,248.888,356.535,249.883,353.925,249.883
		z"/>
	<path style="fill:#4D3D36;" d="M236.636,367.173c-2.61,0-5.221-0.996-7.212-2.987c-3.983-3.983-3.983-10.441,0-14.425
		l93.832-93.832c3.984-3.982,10.44-3.982,14.425,0c3.983,3.983,3.983,10.441,0,14.425l-93.832,93.832
		C241.856,366.177,239.246,367.173,236.636,367.173z"/>
</g>
</svg>